<?xml version="1.0" encoding="UTF-8" standalone="no"?>
<svg
   xmlns:dc="http://purl.org/dc/elements/1.1/"
   xmlns:cc="http://creativecommons.org/ns#"
   xmlns:rdf="http://www.w3.org/1999/02/22-rdf-syntax-ns#"
   xmlns="http://www.w3.org/2000/svg"
   xmlns:sodipodi="http://sodipodi.sourceforge.net/DTD/sodipodi-0.dtd"
   xmlns:inkscape="http://www.inkscape.org/namespaces/inkscape"
   id="Layer_1"
   version="1.1"
   viewBox="0 0 52 52"
   xml:space="preserve"
   sodipodi:docname="logo.svg"
   width="64"
   height="32"
   inkscape:version="0.92.2 (5c3e80d, 2017-08-06)"><metadata
     id="metadata4871"><rdf:RDF><cc:Work
         rdf:about=""><dc:format>image/svg+xml</dc:format><dc:type
           rdf:resource="http://purl.org/dc/dcmitype/StillImage" /><dc:title></dc:title></cc:Work></rdf:RDF></metadata><defs
     id="defs4869" /><sodipodi:namedview
     pagecolor="#240f0f"
     bordercolor="#666666"
     borderopacity="1"
     objecttolerance="10"
     gridtolerance="10"
     guidetolerance="10"
     inkscape:pageopacity="0"
     inkscape:pageshadow="2"
     inkscape:window-width="1544"
     inkscape:window-height="815"
     id="namedview4867"
     showgrid="false"
     inkscape:pagecheckerboard="true"
     units="px"
     inkscape:zoom="16.25"
     inkscape:cx="42.738462"
     inkscape:cy="16"
     inkscape:window-x="18"
     inkscape:window-y="0"
     inkscape:window-maximized="0"
     inkscape:current-layer="Layer_1" /><style
     type="text/css"
     id="style4818">
	.st0{fill:#231F20;}
</style><g
     id="g4864"
     transform="matrix(0.77114324,0,0,0.73015814,-26.391882,4.8709128)"
     style="fill:#ffffff"><g
       id="g4822"
       style="fill:#ffffff"><path
         class="st0"
         d="m 47.68063,19.922268 c 2.117847,5.888864 0.940838,10.563269 -1.514798,16.069736 -1.155738,2.591599 -2.615684,4.974987 -4.329082,7.237812 -2.469036,3.260781 -4.849464,4.600869 -8.928352,5.055241 -5.56709,0.620148 -12.339981,0.734703 -17.25018,-2.183209 C 11.174703,43.437492 5.22616,37.180797 3.9778613,32.12479 1.0686893,20.341726 6.6786065,6.1316018 19.633974,3.900425 25.46624,2.8959907 31.785685,3.0397568 36.670029,6.5978723 38.675644,8.0589095 40.6381,9.589325 42.609772,11.09595 c 3.393192,2.592859 4.5755,5.664811 6.033272,9.482143 0.51144,1.339262 2.687549,0.758093 2.169628,-0.598139 C 49.644154,16.920071 48.829754,13.652096 46.489738,11.270216 44.020966,8.7572765 40.652496,6.7023873 37.805649,4.6550632 32.242958,0.6546283 25.869631,0.4753128 19.172548,1.658887 4.9422245,4.1738095 -1.5938398,19.655264 1.8082323,32.722931 3.3192642,38.526939 8.9768419,44.379745 13.870595,47.63612 c 5.999022,3.991836 14.451472,3.697895 21.313408,2.723648 5.987564,-0.850102 9.832851,-6.901077 12.343727,-11.915859 3.233749,-6.458516 4.819145,-12.17771 2.322529,-19.11978 -0.486379,-1.352419 -2.661348,-0.769127 -2.169629,0.598139 z"
         id="path4820"
         inkscape:connector-curvature="0"
         style="fill:#ffffff" /></g><g
       id="g4826"
       style="fill:#ffffff"><path
         class="st0"
         d="m 24.188776,2.8080897 c 0.197311,0.9224882 0.25383,1.8419847 0.204561,2.7837591 -0.0757,1.4470706 2.174511,1.4429412 2.25,0 0.05958,-1.1389027 -0.04647,-2.2670205 -0.284933,-3.3818982 -0.3027,-1.415202 -2.472168,-0.8163163 -2.169628,0.5981391 z"
         id="path4824"
         inkscape:connector-curvature="0"
         style="fill:#ffffff" /></g><g
       id="g4830"
       style="fill:#ffffff"><path
         class="st0"
         d="m 2.1075187,26.883886 c 1.2777777,0 2.5555553,0 3.833333,0 1.4477677,0 1.4501657,-2.25 0,-2.25 -1.2777777,0 -2.5555553,0 -3.833333,0 -1.4477678,0 -1.4501657,2.25 0,2.25 z"
         id="path4828"
         inkscape:connector-curvature="0"
         style="fill:#ffffff" /></g><g
       id="g4834"
       style="fill:#ffffff"><path
         class="st0"
         d="m 26.899185,49.09222 c 0,-1.194446 0,-2.388889 0,-3.583336 0,-1.447765 -2.25,-1.450164 -2.25,0 0,1.194447 0,2.38889 0,3.583336 0,1.447766 2.25,1.450165 2.25,0 z"
         id="path4832"
         inkscape:connector-curvature="0"
         style="fill:#ffffff" /></g><g
       id="g4838"
       style="fill:#ffffff"><path
         class="st0"
         d="m 49.355965,24.980639 c -0.996823,-0.111437 -1.995438,-0.174481 -2.998349,-0.189293 -1.448371,-0.02139 -1.448925,2.228601 0,2.25 1.002923,0.01481 2.001538,0.07786 2.998349,0.189293 0.604763,0.06761 1.125,-0.565455 1.125,-1.125 0,-0.664382 -0.51849,-1.0572 -1.125,-1.125 z"
         id="path4836"
         inkscape:connector-curvature="0"
         style="fill:#ffffff" /></g><g
       id="g4842"
       style="fill:#ffffff"><path
         class="st0"
         d="m 17.160593,20.220692 c 0.16374,0.755756 0.09682,1.765016 -0.481501,2.361492 -0.883584,0.911329 -1.05571,-0.812735 -1.104533,-1.355547 -0.02849,-0.316792 -0.143723,-1.011128 -0.04668,-1.31892 0.149333,-0.473648 -0.0092,-0.265978 0.436034,-0.410157 0.267846,-0.08674 0.843802,-0.0027 1.109334,0.129843 0.381346,0.190302 0.254421,-0.01277 0.205223,0.575764 -0.120617,1.4429 2.130051,1.434906 2.25,0 0.185528,-2.219387 -1.729773,-3.097181 -3.724751,-2.940075 -2.637401,0.207699 -2.677566,2.601368 -2.392799,4.700279 0.247731,1.825943 1.591757,3.769472 3.70882,3.011608 2.080721,-0.744856 2.622159,-3.452297 2.210482,-5.352426 -0.306452,-1.414452 -2.475986,-0.815886 -2.169629,0.598139 z"
         id="path4840"
         inkscape:connector-curvature="0"
         style="fill:#ffffff" /></g><g
       id="g4846"
       style="fill:#ffffff"><path
         class="st0"
         d="m 27.65831,18.208418 c 0.04668,1.267151 -0.08169,2.21213 -1.015604,3.140337 -0.857403,0.852157 -2.039845,0.667398 -2.448528,-0.560806 -0.375639,-1.128903 -0.428004,-2.500693 0.346246,-3.443078 0.995466,-1.211639 2.620857,-1.158874 3.148434,0.478713 0.442232,1.372682 2.615437,0.785646 2.169628,-0.598139 -0.745821,-2.315012 -3.094454,-3.859368 -5.43651,-2.616719 -2.503494,1.328305 -3.009377,3.739892 -2.485849,6.336266 0.415155,2.058929 2.368867,3.721209 4.577041,3.168926 2.517241,-0.629583 3.477785,-3.661865 3.395142,-5.9055 -0.05317,-1.44351 -2.303427,-1.450503 -2.25,0 z"
         id="path4844"
         inkscape:connector-curvature="0"
         style="fill:#ffffff" /></g><g
       id="g4850"
       style="fill:#ffffff"><path
         class="st0"
         d="m 35.539661,19.762344 c 0.733391,0.323063 0.968159,0.954087 0.685292,1.705019 -0.105572,0.280257 -0.422375,0.926148 -0.738686,1.011134 -0.396259,0.106468 -0.552727,-0.180933 -0.83728,-0.455456 -0.574001,-0.553765 -1.209568,-1.213314 -1.132713,-2.079792 0.04859,-0.547804 0.160812,-0.623513 0.634479,-0.746784 0.396301,-0.103137 0.992683,-0.06769 1.261108,0.256757 0.923806,1.1166 2.50779,-0.482858 1.590992,-1.59099 -1.153942,-1.394766 -4.162838,-1.298508 -5.211286,0.190035 -1.358109,1.928183 -0.07091,4.296663 1.395639,5.684727 0.724926,0.68613 1.575642,1.30496 2.626644,1.043909 0.98618,-0.244949 1.815117,-1.126398 2.284531,-1.999901 0.935242,-1.740322 0.49712,-4.115595 -1.423103,-4.961468 -1.312859,-0.578325 -2.459259,1.359736 -1.135617,1.94281 z"
         id="path4848"
         inkscape:connector-curvature="0"
         style="fill:#ffffff" /></g><g
       id="g4854"
       style="fill:#ffffff;stroke-width:0;stroke-miterlimit:4;stroke-dasharray:none"><path
         class="st0"
         d="m 31.565866,29.26963 c 0.0055,0.673596 0.432696,3.325409 0.03102,3.805161 -0.508929,0.607845 -3.154293,0.236194 -3.839518,0.242996 -2.898584,0.02875 -5.797169,0.05751 -8.695753,0.08627 0.375,0.375 0.75,0.75 1.125,1.125 -0.119635,-1.412651 -0.244469,-2.850521 -0.171799,-4.269735 0.133553,-2.608185 2.202166,-2.923267 4.336993,-2.925644 2.308109,-0.0026 5.944961,-0.838699 7.052082,1.857929 0.542427,1.321198 2.720098,0.742653 2.169626,-0.598138 -1.85413,-4.516131 -7.09424,-3.77273 -11.177979,-3.499667 -5.194755,0.347353 -4.802045,5.383656 -4.458923,9.435255 0.05093,0.60141 0.474108,1.131455 1.125,1.125 2.557575,-0.02538 5.115149,-0.05075 7.672724,-0.07613 1.943395,-0.01928 4.347998,0.349491 6.221968,-0.179657 0.371757,-0.104972 0.690067,-0.405994 0.785743,-0.785743 0.409226,-1.624287 0.08733,-3.684529 0.07382,-5.342903 -0.0118,-1.447163 -2.261824,-1.450581 -2.249999,-1e-6 z"
         id="path4852"
         inkscape:connector-curvature="0"
         style="fill:#ffffff;stroke-width:0;stroke-miterlimit:4;stroke-dasharray:none" /></g><g
       id="g4858"
       style="fill:#ffffff"><path
         class="st0"
         d="m 32.407116,27.468567 c 0.455444,-0.995384 1.877174,-0.737694 2.79499,-0.732985 0.703183,0.0036 1.797112,-0.200843 2.460194,0.01942 1.333878,0.44309 1.431709,3.759193 1.085056,4.923756 0.261917,-0.261916 0.523831,-0.523829 0.785744,-0.785744 -0.871094,0.223511 -2.079502,0.05325 -2.984123,0.06018 -1.042988,0.008 -2.085865,0.0013 -3.128765,-0.01269 -1.448346,-0.01945 -1.449065,2.23054 0,2.250002 1.460125,0.01961 2.920131,0.02178 4.380207,-0.0027 0.813957,-0.01368 2.160259,0.241703 2.827247,-0.414425 0.614403,-0.604401 0.388424,-1.833702 0.386288,-2.587214 -0.0031,-1.097499 0.03445,-2.244522 -0.33889,-3.295717 -0.773327,-2.177431 -2.544651,-2.389791 -4.578934,-2.400224 -2.006717,-0.01029 -4.628832,-0.349278 -5.631824,1.842781 -0.598169,1.307306 1.340458,2.452062 1.94281,1.135618 z"
         id="path4856"
         inkscape:connector-curvature="0"
         style="fill:#ffffff" /></g><g
       id="g4862"
       style="fill:#ffffff"><path
         class="st0"
         d="m 20.856111,25.787521 c -1.496194,-1.797334 -3.947534,-1.513567 -6.067514,-1.379345 -1.980995,0.125424 -3.506663,0.900372 -4.331121,2.790419 -0.5297578,1.214455 -1.2558253,4.636005 0.130817,5.543917 0.84961,0.556289 2.54118,0.236156 3.468118,0.242279 1.568789,0.01037 3.137576,0.0108 4.706385,0.0047 1.447504,-0.0056 1.450386,-2.255607 0,-2.249998 -1.232635,0.0048 -2.465248,0.0059 -3.697883,6.52e-4 -1.079483,-0.0046 -2.579504,0.248574 -3.609741,-0.05388 0.261915,0.261915 0.52383,0.52383 0.785744,0.785743 -0.55146,-1.89785 0.157264,-4.546797 2.307399,-4.800384 1.385284,-0.16338 3.751278,-0.453005 4.716806,0.706857 0.927323,1.113966 2.511519,-0.485183 1.59099,-1.59099 z"
         id="path4860"
         inkscape:connector-curvature="0"
         style="fill:#ffffff" /></g></g><text
     xml:space="preserve"
     style="font-style:normal;font-variant:normal;font-weight:bold;font-stretch:normal;font-size:34.66666794px;line-height:1.25;font-family:sans-serif;-inkscape-font-specification:'sans-serif, Bold';font-variant-ligatures:normal;font-variant-caps:normal;font-variant-numeric:normal;font-feature-settings:normal;text-align:start;letter-spacing:0px;word-spacing:0px;writing-mode:lr-tb;text-anchor:start;fill:#ffffff;fill-opacity:1;stroke:none;stroke-width:1.625"
     x="22.803726"
     y="38.265331"
     id="text3767"><tspan
       sodipodi:role="line"
       id="tspan3765"
       x="22.803726"
       y="38.265331"
       style="fill:#ffffff;stroke-width:1.625">HR</tspan></text>
</svg>